<svg width="31" height="45" viewBox="0 0 31 45" fill="none" xmlns="http://www.w3.org/2000/svg">
<path d="M15.9729 0.979492C7.70196 0.979492 0.9729 7.70855 0.9729 15.9795C0.9729 26.3752 15.9877 44.1331 15.9877 44.1331C15.9877 44.1331 30.9729 25.8639 30.9729 15.9795C30.9729 7.70855 24.2441 0.979492 15.9729 0.979492ZM20.4987 20.3715C19.2508 21.6192 17.612 22.2431 15.9729 22.2431C14.3341 22.2431 12.6948 21.6192 11.4474 20.3715C8.95174 17.8762 8.95174 13.8158 11.4474 11.3201C12.6558 10.1112 14.2632 9.44534 15.9729 9.44534C17.6826 9.44534 19.2898 10.1114 20.4987 11.3201C22.9943 13.8158 22.9943 17.8762 20.4987 20.3715Z" fill="#007BFF"/>
</svg>
