<svg width="15" height="15" viewBox="0 0 15 15" fill="none" xmlns="http://www.w3.org/2000/svg">
<mask id="mask0" mask-type="alpha" maskUnits="userSpaceOnUse" x="0" y="0" width="15" height="15">
<path fill-rule="evenodd" clip-rule="evenodd" d="M7.5 0C3.35786 0 0 3.35786 0 7.5C0 11.6421 3.35786 15 7.5 15C11.6421 15 15 11.6421 15 7.5C15 3.35786 11.6421 0 7.5 0ZM12.2368 3.55263C12.2368 3.11645 11.8836 2.76316 11.4474 2.76316C11.0112 2.76316 10.6579 3.11645 10.6579 3.55263C10.6579 3.98842 11.0112 4.34211 11.4474 4.34211C11.8836 4.34211 12.2368 3.98842 12.2368 3.55263ZM11.4474 7.5C11.4474 5.32342 9.67658 3.55263 7.5 3.55263C5.32342 3.55263 3.55263 5.32342 3.55263 7.5C3.55263 9.67658 5.32342 11.4474 7.5 11.4474C9.67658 11.4474 11.4474 9.67658 11.4474 7.5ZM6.44259 4.94718C6.77783 4.80831 7.13714 4.73684 7.5 4.73684C7.86286 4.73684 8.22217 4.80831 8.55742 4.94718C8.89266 5.08604 9.19726 5.28957 9.45385 5.54615C9.71043 5.80274 9.91396 6.10734 10.0528 6.44259C10.1917 6.77783 10.2632 7.13714 10.2632 7.5C10.2632 7.86286 10.1917 8.22217 10.0528 8.55742C9.91396 8.89266 9.71043 9.19726 9.45385 9.45385C9.19726 9.71043 8.89266 9.91396 8.55742 10.0528C8.22217 10.1917 7.86286 10.2632 7.5 10.2632C7.13714 10.2632 6.77783 10.1917 6.44259 10.0528C6.10734 9.91396 5.80274 9.71043 5.54615 9.45385C5.28957 9.19726 5.08604 8.89266 4.94718 8.55742C4.80831 8.22217 4.73684 7.86286 4.73684 7.5C4.73684 7.13714 4.80831 6.77783 4.94718 6.44259C5.08604 6.10734 5.28957 5.80274 5.54615 5.54615C5.80274 5.28957 6.10734 5.08604 6.44259 4.94718Z" fill="#C4C4C4"/>
</mask>
<g mask="url(#mask0)">
<path fill-rule="evenodd" clip-rule="evenodd" d="M7.5 0C3.35786 0 0 3.35786 0 7.5C0 11.6421 3.35786 15 7.5 15C11.6421 15 15 11.6421 15 7.5C15 3.35786 11.6421 0 7.5 0ZM12.2368 3.55263C12.2368 3.11645 11.8836 2.76316 11.4474 2.76316C11.0112 2.76316 10.6579 3.11645 10.6579 3.55263C10.6579 3.98842 11.0112 4.34211 11.4474 4.34211C11.8836 4.34211 12.2368 3.98842 12.2368 3.55263ZM11.4474 7.5C11.4474 5.32342 9.67658 3.55263 7.5 3.55263C5.32342 3.55263 3.55263 5.32342 3.55263 7.5C3.55263 9.67658 5.32342 11.4474 7.5 11.4474C9.67658 11.4474 11.4474 9.67658 11.4474 7.5ZM6.44259 4.94718C6.77783 4.80831 7.13714 4.73684 7.5 4.73684C7.86286 4.73684 8.22217 4.80831 8.55742 4.94718C8.89266 5.08604 9.19726 5.28957 9.45385 5.54615C9.71043 5.80274 9.91396 6.10734 10.0528 6.44259C10.1917 6.77783 10.2632 7.13714 10.2632 7.5C10.2632 7.86286 10.1917 8.22217 10.0528 8.55742C9.91396 8.89266 9.71043 9.19726 9.45385 9.45385C9.19726 9.71043 8.89266 9.91396 8.55742 10.0528C8.22217 10.1917 7.86286 10.2632 7.5 10.2632C7.13714 10.2632 6.77783 10.1917 6.44259 10.0528C6.10734 9.91396 5.80274 9.71043 5.54615 9.45385C5.28957 9.19726 5.08604 8.89266 4.94718 8.55742C4.80831 8.22217 4.73684 7.86286 4.73684 7.5C4.73684 7.13714 4.80831 6.77783 4.94718 6.44259C5.08604 6.10734 5.28957 5.80274 5.54615 5.54615C5.80274 5.28957 6.10734 5.08604 6.44259 4.94718Z" fill="#212529"/>
</g>
</svg>
