<svg width="15" height="15" viewBox="0 0 15 15" fill="none" xmlns="http://www.w3.org/2000/svg">
<path d="M7.5 0C3.36424 0 0 3.36424 0 7.5C0 11.6358 3.36424 15 7.5 15C11.6358 15 15 11.6358 15 7.5C15 3.36424 11.6358 0 7.5 0ZM11.1642 6.04043C11.1675 6.11739 11.1695 6.19565 11.1695 6.27424C11.1695 8.66054 9.35217 11.413 6.02967 11.413C5.00967 11.413 4.05978 11.114 3.26087 10.6014C3.40207 10.6184 3.54522 10.6265 3.69163 10.6265C4.53815 10.6265 5.31717 10.3383 5.93478 9.8537C5.14435 9.83935 4.47783 9.31598 4.24728 8.59924C4.35783 8.62043 4.47098 8.63185 4.58772 8.63185C4.75239 8.63185 4.91217 8.61 5.06315 8.56826C4.2375 8.40163 3.615 7.6725 3.615 6.79696C3.615 6.78913 3.615 6.78163 3.615 6.77413C3.85859 6.90946 4.13674 6.99098 4.43315 7.00044C3.94794 6.67598 3.62967 6.12359 3.62967 5.49685C3.62967 5.16587 3.71837 4.85576 3.87391 4.58837C4.76511 5.68109 6.0962 6.40011 7.59717 6.47576C7.5662 6.34337 7.54989 6.20576 7.54989 6.06424C7.54989 5.06674 8.35859 4.25804 9.35641 4.25804C9.87587 4.25804 10.3451 4.47717 10.6745 4.82837C11.0857 4.7475 11.4727 4.59717 11.8216 4.39043C11.687 4.81174 11.4003 5.16587 11.027 5.38957C11.3928 5.34522 11.7404 5.2487 12.0649 5.10489C11.8229 5.46717 11.5167 5.78576 11.1642 6.04043Z" fill="#212529"/>
</svg>
