<svg width="15" height="15" viewBox="0 0 15 15" fill="none" xmlns="http://www.w3.org/2000/svg">
<path d="M7.5 0C3.36457 0 0 3.36457 0 7.5C0 11.6354 3.36457 15 7.5 15C11.6358 15 15 11.6354 15 7.5C15 3.36457 11.6358 0 7.5 0ZM10.7521 8.9788C11.4815 9.62641 11.6332 9.85761 11.6579 9.89707C11.9602 10.3764 11.3227 10.4348 11.3227 10.4348H9.97924C9.97924 10.4348 9.65217 10.4384 9.37272 10.2532C8.91717 9.95478 8.44011 9.3763 8.10489 9.47674C7.82348 9.56087 7.82609 9.94109 7.82609 10.2662C7.82609 10.3826 7.72598 10.4348 7.5 10.4348C7.27402 10.4348 7.18011 10.4348 7.08 10.4348C6.34402 10.4348 5.54543 10.187 4.7488 9.35446C3.62185 8.17761 2.63348 5.80696 2.63348 5.80696C2.63348 5.80696 2.57511 5.68761 2.6387 5.61489C2.71076 5.53337 2.90674 5.5438 2.90674 5.5438L4.20946 5.54348C4.20946 5.54348 4.33207 5.56663 4.42011 5.62859C4.49283 5.67946 4.53326 5.77663 4.53326 5.77663C4.53326 5.77663 4.75207 6.49924 5.03087 6.96C5.57543 7.85935 5.8288 7.88217 6.0137 7.78533C6.2837 7.64511 6.19565 6.68902 6.19565 6.68902C6.19565 6.68902 6.20772 6.27848 6.06685 6.09554C5.95826 5.95402 5.75054 5.8787 5.65989 5.86696C5.58652 5.8575 5.70913 5.72902 5.86533 5.65565C6.07402 5.56272 6.35804 5.53891 6.84783 5.54348C7.22902 5.54707 7.33891 5.56989 7.48761 5.60413C7.93728 5.70783 7.82609 5.98141 7.82609 6.94207C7.82609 7.24989 7.7837 7.68261 8.01587 7.82609C8.11598 7.88804 8.45902 7.9637 9.06946 6.97239C9.35935 6.50217 9.58989 5.72217 9.58989 5.72217C9.58989 5.72217 9.6375 5.63641 9.71152 5.59402C9.78717 5.55065 9.78489 5.55163 9.88859 5.55163C9.99228 5.55163 11.0322 5.54348 11.2604 5.54348C11.4884 5.54348 11.7023 5.54087 11.7391 5.67457C11.792 5.86663 11.5709 6.52467 11.0107 7.2388C10.0901 8.41076 9.98804 8.3012 10.7521 8.9788Z" fill="#212529"/>
</svg>
