<?xml version="1.0" encoding="utf-8"?>
<!-- Generator: Adobe Illustrator 17.1.0, SVG Export Plug-In . SVG Version: 6.00 Build 0)  -->
<!DOCTYPE svg PUBLIC "-//W3C//DTD SVG 1.1//EN" "http://www.w3.org/Graphics/SVG/1.1/DTD/svg11.dtd">
<svg version="1.1" id="Layer_1" xmlns="http://www.w3.org/2000/svg" xmlns:xlink="http://www.w3.org/1999/xlink" x="0px" y="0px"
	 viewBox="48.2 364 498.9 65.6" enable-background="new 48.2 364 498.9 65.6" xml:space="preserve">
<g>
	<path fill="#FFFFFF" d="M122.4,429.6c-5.2,0-9.2-1.6-12-4.7c-2.9-3.1-4.3-7.4-4.3-12.9v-31.3h16.9v25.9c0,2.7,0.6,4.7,1.8,6
		c1.2,1.4,2.8,2,4.9,2c2,0,3.6-0.7,4.9-2c1.3-1.4,2-3.4,2-6v-25.9h16.9v47.8h-16.9V422c-1.5,2-3.4,3.8-5.7,5.3
		C128.6,428.9,125.8,429.6,122.4,429.6z"/>
	<path fill="#FFFFFF" d="M162.6,380.8h16.9v9.6c1.4-3.2,3.2-5.8,5.6-7.8s5.5-2.8,9.6-2.7v17.7h-1.4c-4.4,0-7.8,1.3-10.2,3.9
		c-2.4,2.6-3.5,6.6-3.5,12.2v14.8h-16.9V380.8z"/>
	<path fill="#FFFFFF" d="M220.2,429.6c-4.1,0-8-0.6-11.9-1.7c-3.8-1.1-7.4-2.9-10.8-5.3l6.3-10.2c2.8,1.8,5.6,3.2,8.4,4.1
		c2.8,0.9,5.5,1.4,8,1.4c2.8,0,4.2-0.8,4.2-2.6v-0.2c0-0.9-0.7-1.7-2-2.2c-1.3-0.5-3.2-1.1-5.8-1.8c-2.4-0.6-4.6-1.3-6.6-2.1
		c-2.1-0.8-3.9-1.8-5.4-2.9c-1.5-1.1-2.7-2.6-3.6-4.2c-0.9-1.7-1.3-3.7-1.3-6.1v-0.2c0-2.5,0.5-4.8,1.5-6.8c1-2,2.3-3.6,4-4.9
		c1.7-1.3,3.7-2.3,6.1-3c2.3-0.7,4.9-1.1,7.7-1.1c3.5,0,7,0.5,10.4,1.5s6.5,2.3,9.3,4.1L233,396c-2.5-1.4-5-2.4-7.5-3.2
		c-2.5-0.8-4.7-1.2-6.6-1.2c-1.3,0-2.3,0.2-2.9,0.7c-0.7,0.4-1,1-1,1.6v0.2c0,0.9,0.7,1.7,2,2.3c1.3,0.6,3.3,1.2,5.8,2
		c2.4,0.7,4.6,1.4,6.6,2.2c2.1,0.8,3.9,1.8,5.4,2.9c1.5,1.1,2.7,2.6,3.6,4.2c0.9,1.7,1.3,3.6,1.3,5.9v0.2c0,2.7-0.5,5-1.4,6.9
		c-0.9,2-2.3,3.6-4,5c-1.7,1.4-3.8,2.4-6.2,3C225.7,429.3,223.1,429.6,220.2,429.6z"/>
	<path fill="#FFFFFF" d="M265.8,429.5c-5.1,0-9.1-1.2-11.9-3.6c-2.8-2.4-4.3-6.5-4.3-12.2v-19.5H244v-13.5h5.6V364h16.9v16.7h11.1
		v13.5h-11.1v16.2c0,1.7,0.4,2.9,1.1,3.7c0.8,0.7,1.9,1.1,3.4,1.1c1.1,0,2.2-0.1,3.3-0.4c1.1-0.3,2.1-0.7,3.1-1.1v13.2
		c-1.5,0.8-3.3,1.5-5.2,2C270.4,429.3,268.2,429.5,265.8,429.5z"/>
	<path fill="#FFFFFF" d="M286.8,411.3h17.5v17.2h-17.5C286.8,428.6,286.8,411.3,286.8,411.3z"/>
	<path fill="#FFFFFF" d="M312.5,422.9l2.6-3.4c4.9,3.8,10.4,5.9,16.2,5.9c6.1,0,10.9-3.4,10.9-8.7c0-5.3-5.6-7.2-11.9-9
		c-7.3-2.1-15.5-4.3-15.5-12.6c0-7.2,6.1-12.5,14.8-12.5c5.4,0,11.5,2,16,4.9l-2.3,3.6c-4.2-2.7-9.1-4.5-13.9-4.5
		c-6.2,0-10.3,3.4-10.3,8c0,5,6.1,6.9,12.6,8.7c7.2,2,14.8,4.7,14.8,12.8c0,8-6.9,13.2-15.5,13.2
		C324.4,429.5,317.2,426.8,312.5,422.9z"/>
	<path fill="#FFFFFF" d="M359.1,417v-29.5h-6.5v-4h6.5v-19.4h4.3v19.4h15.8v4h-15.8v29.1c0,6.5,3.8,8.8,9,8.8c2.2,0,4.1-0.4,6.6-1.6
		v4.1c-2.3,1.1-4.5,1.6-7.3,1.6C364.8,429.4,359.1,425.6,359.1,417z"/>
	<path fill="#FFFFFF" d="M388.6,411.1v-27.6h4.3v26.8c0,9.3,5.2,15.4,14.3,15.4c8.8,0,15.6-6.7,15.6-16.1v-26.1h4.3v45.1h-4.3v-8.4
		c-3,5.3-8,9.4-16.3,9.4C395.2,429.6,388.6,421.9,388.6,411.1z"/>
	<path fill="#FFFFFF" d="M435.3,406c0-14.7,11-23.6,21.9-23.6c9,0,14.8,5.1,18.6,10.8V364h4.3v64.5h-4.3v-10.1
		c-3.9,5.9-9.6,11.1-18.6,11.1C446.4,429.6,435.3,420.9,435.3,406z M476.1,405.9c0-11.6-9-19.3-18.4-19.3c-9.8,0-17.7,7.2-17.7,19.5
		c0,11.8,8.2,19.5,17.7,19.5C467.1,425.5,476.1,417.6,476.1,405.9z"/>
	<rect x="489.6" y="364.1" fill="#FFFFFF" width="4.3" height="13.6"/>
	<rect x="489.6" y="383.5" fill="#FFFFFF" width="4.3" height="45.1"/>
	<path fill="#FFFFFF" d="M500.8,406c0-12.6,9.8-23.6,23.3-23.6c13.3,0,23.1,10.8,23.1,23.6c0,12.6-9.8,23.6-23.3,23.6
		C510.5,429.6,500.8,418.9,500.8,406z M542.4,406c0-10.9-8.4-19.5-18.6-19.5s-18.4,8.7-18.4,19.5c0,10.9,8.1,19.5,18.6,19.5
		C534,425.6,542.4,416.8,542.4,406z"/>
	<path fill="#FFFFFF" d="M99,394.1c-1.1-3.1-2.7-5.6-4.6-7.8c-2-2.1-4.2-3.7-6.8-4.9c-2.6-1.1-5.3-1.7-8.1-1.7
		c-1.8,0-3.4,0.2-4.8,0.6c-1.4,0.4-2.7,0.9-3.9,1.6c-1.1,0.7-2.2,1.5-3.1,2.3c-0.9,0.9-1.8,1.8-2.7,2.8l0.1-23.1H48.2v32.8h19.3
		c0,0,0,0,0-0.1c0.9-1,1.9-1.7,3.1-2.3c1.2-0.5,2.4-0.8,3.8-0.8c2.8,0,5.1,1,6.9,3c1.9,2,2.8,4.6,2.8,7.8v0.2c0,3.2-0.9,5.9-2.8,7.9
		s-4.2,3-6.9,3c-1.4,0-2.6-0.3-3.8-0.8s-2.2-1.3-3.1-2.3c-0.1-0.2-0.2-0.4-0.4-0.5H48.2v16.6h16.9v-5.8c0.8,0.9,1.6,1.8,2.6,2.6
		c0.9,0.8,2,1.6,3.2,2.2c1.2,0.6,2.5,1.1,3.9,1.5c1.4,0.4,3.1,0.6,4.9,0.6c2.8,0,5.5-0.6,8.1-1.7c2.6-1.1,4.8-2.8,6.7-4.9
		c1.9-2.1,3.4-4.8,4.6-7.9c1.1-3.1,1.7-6.6,1.7-10.5v-0.2C100.7,400.6,100.1,397.2,99,394.1z"/>
</g>
</svg>
